M48
METRIC,LZ,000.000
;FILE_FORMAT=3:3
;TYPE=PLATED
;Layer: PTH_Through
;EasyEDA v6.5.47, 2024-09-14 13:33:52
;6b71bc96eda848908f56126c52e69eb3,6c79e25785f3422ea09e90fa1defc8f1,10
;Gerber Generator version 0.2
;Holesize 1 = 1.016 mm
T01C1.016
%
G05
G90
T01
X133505Y193675G85X133500Y193675
X130965Y193675G85X130960Y193675
X128425Y193675G85X128420Y193675
X125885Y193675G85X125880Y193675
X123345Y193675G85X123340Y193675
X120805Y193675G85X120800Y193675
X118265Y193675G85X118260Y193675
X115725Y193675G85X115720Y193675
X113185Y193675G85X113180Y193675
X110645Y193675G85X110640Y193675
X108105Y193675G85X108100Y193675
X105565Y193675G85X105560Y193675
X103025Y193675G85X103020Y193675
X100485Y193675G85X100480Y193675
X097945Y193675G85X097940Y193675
X095405Y193675G85X095400Y193675
X092865Y193675G85X092860Y193675
X090325Y193675G85X090320Y193675
X087785Y193675G85X087780Y193675
X085245Y193675G85X085240Y193675
X082705Y193675G85X082700Y193675
X080165Y193675G85X080160Y193675
X077625Y193675G85X077620Y193675
X075085Y193675G85X075080Y193675
X072545Y193675G85X072540Y193675
X070005Y193675G85X070000Y193675
X067465Y193675G85X067460Y193675
X064925Y193675G85X064920Y193675
X062385Y193675G85X062380Y193675
X059845Y193675G85X059840Y193675
X057305Y193675G85X057300Y193675
X133505Y188595G85X133500Y188595
X130965Y188595G85X130960Y188595
X128425Y188595G85X128420Y188595
X125885Y188595G85X125880Y188595
X123345Y188595G85X123340Y188595
X120805Y188595G85X120800Y188595
X118265Y188595G85X118260Y188595
X115725Y188595G85X115720Y188595
X113185Y188595G85X113180Y188595
X110645Y188595G85X110640Y188595
X108105Y188595G85X108100Y188595
X105565Y188595G85X105560Y188595
X103025Y188595G85X103020Y188595
X100485Y188595G85X100480Y188595
X097945Y188595G85X097940Y188595
X095405Y188595G85X095400Y188595
X092865Y188595G85X092860Y188595
X090325Y188595G85X090320Y188595
X087785Y188595G85X087780Y188595
X085245Y188595G85X085240Y188595
X082705Y188595G85X082700Y188595
X080165Y188595G85X080160Y188595
X077625Y188595G85X077620Y188595
X075085Y188595G85X075080Y188595
X072545Y188595G85X072540Y188595
X070005Y188595G85X070000Y188595
X067465Y188595G85X067460Y188595
X064925Y188595G85X064920Y188595
X062385Y188595G85X062380Y188595
X059845Y188595G85X059840Y188595
X057305Y188595G85X057300Y188595
X047145Y193675G85X047140Y193675
X044605Y193675G85X044600Y193675
X042065Y193675G85X042060Y193675
X039525Y193675G85X039520Y193675
X036985Y193675G85X036980Y193675
X034445Y193675G85X034440Y193675
X031905Y193675G85X031900Y193675
X029365Y193675G85X029360Y193675
X026825Y193675G85X026820Y193675
X024285Y193675G85X024280Y193675
X021745Y193675G85X021740Y193675
X019205Y193675G85X019200Y193675
X016665Y193675G85X016660Y193675
X014125Y193675G85X014120Y193675
X011585Y193675G85X011580Y193675
X009045Y193675G85X009040Y193675
X006505Y193675G85X006500Y193675
X003965Y193675G85X003960Y193675
X047145Y188595G85X047140Y188595
X044605Y188595G85X044600Y188595
X042065Y188595G85X042060Y188595
X039525Y188595G85X039520Y188595
X036985Y188595G85X036980Y188595
X034445Y188595G85X034440Y188595
X031905Y188595G85X031900Y188595
X029365Y188595G85X029360Y188595
X026825Y188595G85X026820Y188595
X024285Y188595G85X024280Y188595
X021745Y188595G85X021740Y188595
X019205Y188595G85X019200Y188595
X016665Y188595G85X016660Y188595
X014125Y188595G85X014120Y188595
X011585Y188595G85X011580Y188595
X009045Y188595G85X009040Y188595
X006505Y188595G85X006500Y188595
X003965Y188595G85X003960Y188595
M30
