G04 Layer: TopSolderMaskLayer*
G04 EasyEDA v6.5.47, 2024-09-14 13:33:52*
G04 6b71bc96eda848908f56126c52e69eb3,6c79e25785f3422ea09e90fa1defc8f1,10*
G04 Gerber Generator version 0.2*
G04 Scale: 100 percent, Rotated: No, Reflected: No *
G04 Dimensions in millimeters *
G04 leading zeros omitted , absolute positions ,4 integer and 5 decimal *
%FSLAX45Y45*%
%MOMM*%

%ADD10O,1.7272X7.3152*%
%ADD11C,1.6256*%

%LPD*%
D10*
G01*
X4713986Y17339335D03*
G01*
X4459986Y17339335D03*
G01*
X4205986Y17339335D03*
G01*
X3951986Y17339335D03*
G01*
X3697986Y17339335D03*
G01*
X3443986Y17339335D03*
G01*
X3189986Y17339335D03*
G01*
X2935986Y17339335D03*
G01*
X2681986Y17339335D03*
G01*
X2427986Y17339335D03*
G01*
X2173986Y17339335D03*
G01*
X1919986Y17339335D03*
G01*
X1665986Y17339335D03*
G01*
X1411986Y17339335D03*
G01*
X1157986Y17339335D03*
G01*
X903986Y17339335D03*
G01*
X649986Y17339335D03*
G01*
X395986Y17339335D03*
G01*
X5729986Y17338192D03*
G01*
X5983986Y17338192D03*
G01*
X6237986Y17338192D03*
G01*
X6491986Y17338192D03*
G01*
X6745986Y17338192D03*
G01*
X6999986Y17338192D03*
G01*
X7253986Y17338192D03*
G01*
X7507986Y17338192D03*
G01*
X7761986Y17338192D03*
G01*
X8015986Y17338192D03*
G01*
X8269986Y17338192D03*
G01*
X8523986Y17338192D03*
G01*
X8777986Y17338192D03*
G01*
X9031986Y17338192D03*
G01*
X9285986Y17338192D03*
G01*
X9539986Y17338192D03*
G01*
X9793986Y17338192D03*
G01*
X10047986Y17338192D03*
G01*
X10301986Y17338192D03*
G01*
X10555986Y17338192D03*
G01*
X10809986Y17338192D03*
G01*
X11063986Y17338192D03*
G01*
X11317986Y17338192D03*
G01*
X11571986Y17338192D03*
G01*
X11825986Y17338192D03*
G01*
X12079986Y17338192D03*
G01*
X12333986Y17338192D03*
G01*
X12587986Y17338192D03*
G01*
X12841986Y17338192D03*
G01*
X13095986Y17338192D03*
G01*
X13349986Y17338192D03*
D11*
G01*
X13350265Y19367449D03*
G01*
X13096290Y19367449D03*
G01*
X12842290Y19367449D03*
G01*
X12588290Y19367449D03*
G01*
X12334290Y19367449D03*
G01*
X12080290Y19367449D03*
G01*
X11826290Y19367449D03*
G01*
X11572290Y19367449D03*
G01*
X11318290Y19367449D03*
G01*
X11064290Y19367449D03*
G01*
X10810290Y19367449D03*
G01*
X10556290Y19367449D03*
G01*
X10302290Y19367449D03*
G01*
X10048290Y19367449D03*
G01*
X9794290Y19367449D03*
G01*
X9540290Y19367449D03*
G01*
X9286290Y19367449D03*
G01*
X9032290Y19367449D03*
G01*
X8778290Y19367449D03*
G01*
X8524290Y19367449D03*
G01*
X8270290Y19367449D03*
G01*
X8016290Y19367449D03*
G01*
X7762290Y19367449D03*
G01*
X7508290Y19367449D03*
G01*
X7254290Y19367449D03*
G01*
X7000290Y19367449D03*
G01*
X6746290Y19367449D03*
G01*
X6492290Y19367449D03*
G01*
X6238290Y19367449D03*
G01*
X5984290Y19367449D03*
G01*
X5730290Y19367449D03*
G01*
X13350265Y18859449D03*
G01*
X13096290Y18859449D03*
G01*
X12842290Y18859449D03*
G01*
X12588290Y18859449D03*
G01*
X12334290Y18859449D03*
G01*
X12080290Y18859449D03*
G01*
X11826290Y18859449D03*
G01*
X11572290Y18859449D03*
G01*
X11318290Y18859449D03*
G01*
X11064290Y18859449D03*
G01*
X10810290Y18859449D03*
G01*
X10556290Y18859449D03*
G01*
X10302290Y18859449D03*
G01*
X10048290Y18859449D03*
G01*
X9794290Y18859449D03*
G01*
X9540290Y18859449D03*
G01*
X9286290Y18859449D03*
G01*
X9032290Y18859449D03*
G01*
X8778290Y18859449D03*
G01*
X8524290Y18859449D03*
G01*
X8270290Y18859449D03*
G01*
X8016290Y18859449D03*
G01*
X7762290Y18859449D03*
G01*
X7508290Y18859449D03*
G01*
X7254290Y18859449D03*
G01*
X7000290Y18859449D03*
G01*
X6746290Y18859449D03*
G01*
X6492290Y18859449D03*
G01*
X6238290Y18859449D03*
G01*
X5984290Y18859449D03*
G01*
X5730290Y18859449D03*
G01*
X4714290Y19367449D03*
G01*
X4460290Y19367449D03*
G01*
X4206265Y19367449D03*
G01*
X3952265Y19367449D03*
G01*
X3698265Y19367449D03*
G01*
X3444265Y19367449D03*
G01*
X3190265Y19367449D03*
G01*
X2936265Y19367449D03*
G01*
X2682265Y19367449D03*
G01*
X2428265Y19367449D03*
G01*
X2174265Y19367449D03*
G01*
X1920290Y19367449D03*
G01*
X1666290Y19367449D03*
G01*
X1412290Y19367449D03*
G01*
X1158290Y19367449D03*
G01*
X904290Y19367449D03*
G01*
X650290Y19367449D03*
G01*
X396316Y19367449D03*
G01*
X4714290Y18859449D03*
G01*
X4460290Y18859449D03*
G01*
X4206265Y18859449D03*
G01*
X3952265Y18859449D03*
G01*
X3698265Y18859449D03*
G01*
X3444265Y18859449D03*
G01*
X3190265Y18859449D03*
G01*
X2936265Y18859449D03*
G01*
X2682265Y18859449D03*
G01*
X2428265Y18859449D03*
G01*
X2174265Y18859449D03*
G01*
X1920290Y18859449D03*
G01*
X1666290Y18859449D03*
G01*
X1412290Y18859449D03*
G01*
X1158290Y18859449D03*
G01*
X904290Y18859449D03*
G01*
X650290Y18859449D03*
G01*
X396316Y18859449D03*
M02*
