G04 Layer: BottomSilkscreenLayer*
G04 EasyEDA v6.5.47, 2024-09-14 13:33:52*
G04 6b71bc96eda848908f56126c52e69eb3,6c79e25785f3422ea09e90fa1defc8f1,10*
G04 Gerber Generator version 0.2*
G04 Scale: 100 percent, Rotated: No, Reflected: No *
G04 Dimensions in millimeters *
G04 leading zeros omitted , absolute positions ,4 integer and 5 decimal *
%FSLAX45Y45*%
%MOMM*%

%ADD10C,0.5000*%
%ADD11C,0.2032*%
%ADD12C,0.2540*%
%ADD13C,0.8000*%

%LPD*%
G36*
X15221610Y20219974D02*
G01*
X15215260Y20217739D01*
X15209926Y20212608D01*
X15206929Y20205750D01*
X15206827Y20177302D01*
X15211602Y20167498D01*
X15218968Y20163129D01*
X15287751Y20163078D01*
X15287751Y19474840D01*
X15219375Y19474840D01*
X15212060Y19470928D01*
X15206827Y19461632D01*
X15206929Y19433184D01*
X15210028Y19426021D01*
X15217089Y19419976D01*
X15334081Y19419976D01*
X15344292Y19425412D01*
X15349982Y19435013D01*
X15349982Y20203769D01*
X15344851Y20212913D01*
X15337993Y20217384D01*
X15328442Y20219771D01*
G37*
G36*
X14572437Y20219873D02*
G01*
X14561464Y20217130D01*
X14554606Y20212405D01*
X14549983Y20202956D01*
X14549983Y19435978D01*
X14554606Y19426580D01*
X14561210Y19422364D01*
X14566442Y19419976D01*
X14682419Y19419976D01*
X14688870Y19424396D01*
X14693138Y19433082D01*
X14693138Y19461632D01*
X14689632Y19468490D01*
X14686635Y19472097D01*
X14680285Y19474840D01*
X14612213Y19474840D01*
X14612213Y20163078D01*
X14680590Y20163078D01*
X14687905Y20166990D01*
X14693138Y20176337D01*
X14693138Y20205852D01*
X14688566Y20215199D01*
X14684705Y20217485D01*
X14679117Y20219822D01*
G37*
G36*
X14747798Y20119949D02*
G01*
X14742363Y20117003D01*
X14737842Y20110653D01*
X14735606Y20101763D01*
X14736165Y20066508D01*
X14740585Y20057110D01*
X14745462Y20053757D01*
X14911120Y20052792D01*
X14912086Y19513600D01*
X14914422Y19509232D01*
X14920518Y19504609D01*
X14926106Y19502424D01*
X14936012Y19500342D01*
X14962632Y19500443D01*
X14972893Y19503085D01*
X14977668Y19505066D01*
X14983815Y19510451D01*
X14986000Y19515531D01*
X14986914Y20052792D01*
X15154401Y20053757D01*
X15157653Y20055433D01*
X15161920Y20062596D01*
X15164206Y20070470D01*
X15164257Y20102576D01*
X15162022Y20110653D01*
X15158364Y20116241D01*
X15152573Y20119949D01*
G37*
D10*
X15499684Y18203237D02*
G01*
X15499684Y17916728D01*
X15499684Y18203237D02*
G01*
X15376999Y18203237D01*
X15336105Y18189521D01*
X15322389Y18175805D01*
X15308673Y18148627D01*
X15308673Y18121449D01*
X15322389Y18094020D01*
X15336105Y18080555D01*
X15376999Y18066839D01*
X15499684Y18066839D02*
G01*
X15376999Y18066839D01*
X15336105Y18053123D01*
X15322389Y18039407D01*
X15308673Y18012229D01*
X15308673Y17971338D01*
X15322389Y17944157D01*
X15336105Y17930444D01*
X15376999Y17916728D01*
X15499684Y17916728D01*
X15109791Y18203237D02*
G01*
X15218757Y17916728D01*
X15109791Y18203237D02*
G01*
X15000571Y17916728D01*
X15177866Y18012229D02*
G01*
X15041468Y18012229D01*
X14706185Y18134911D02*
G01*
X14719650Y18162346D01*
X14747082Y18189521D01*
X14774257Y18203237D01*
X14828867Y18203237D01*
X14856048Y18189521D01*
X14883223Y18162346D01*
X14896939Y18134911D01*
X14910655Y18094020D01*
X14910655Y18025945D01*
X14896939Y17985054D01*
X14883223Y17957619D01*
X14856048Y17930444D01*
X14828867Y17916728D01*
X14774257Y17916728D01*
X14747082Y17930444D01*
X14719650Y17957619D01*
X14706185Y17985054D01*
X14616018Y18203237D02*
G01*
X14616018Y17916728D01*
X14425264Y18203237D02*
G01*
X14616018Y18012229D01*
X14547943Y18080555D02*
G01*
X14425264Y17916728D01*
D11*
X15372204Y19321388D02*
G01*
X15372204Y19178132D01*
X15419956Y19321388D02*
G01*
X15324452Y19321388D01*
X15238600Y19321388D02*
G01*
X15252316Y19314530D01*
X15265778Y19300814D01*
X15272636Y19287352D01*
X15279494Y19266778D01*
X15279494Y19232742D01*
X15272636Y19212168D01*
X15265778Y19198706D01*
X15252316Y19184990D01*
X15238600Y19178132D01*
X15211422Y19178132D01*
X15197706Y19184990D01*
X15183990Y19198706D01*
X15177132Y19212168D01*
X15170528Y19232742D01*
X15170528Y19266778D01*
X15177132Y19287352D01*
X15183990Y19300814D01*
X15197706Y19314530D01*
X15211422Y19321388D01*
X15238600Y19321388D01*
X15125316Y19321388D02*
G01*
X15125316Y19178132D01*
X15125316Y19321388D02*
G01*
X15030066Y19178132D01*
X15030066Y19321388D02*
G01*
X15030066Y19178132D01*
X14985108Y19321388D02*
G01*
X14930498Y19253062D01*
X14930498Y19178132D01*
X14875888Y19321388D02*
G01*
X14930498Y19253062D01*
X14817214Y19321388D02*
G01*
X14742284Y19321388D01*
X14783178Y19266778D01*
X14762604Y19266778D01*
X14749142Y19259920D01*
X14742284Y19253062D01*
X14735426Y19232742D01*
X14735426Y19219026D01*
X14742284Y19198706D01*
X14756000Y19184990D01*
X14776320Y19178132D01*
X14796894Y19178132D01*
X14817214Y19184990D01*
X14824072Y19191848D01*
X14830930Y19205310D01*
X14608680Y19321388D02*
G01*
X14676752Y19321388D01*
X14683610Y19259920D01*
X14676752Y19266778D01*
X14656432Y19273636D01*
X14635858Y19273636D01*
X14615538Y19266778D01*
X14601822Y19253062D01*
X14594964Y19232742D01*
X14594964Y19219026D01*
X14601822Y19198706D01*
X14615538Y19184990D01*
X14635858Y19178132D01*
X14656432Y19178132D01*
X14676752Y19184990D01*
X14683610Y19191848D01*
X14690468Y19205310D01*
X14461360Y19273636D02*
G01*
X14468218Y19253062D01*
X14481680Y19239600D01*
X14502254Y19232742D01*
X14509112Y19232742D01*
X14529432Y19239600D01*
X14543148Y19253062D01*
X14550006Y19273636D01*
X14550006Y19280494D01*
X14543148Y19300814D01*
X14529432Y19314530D01*
X14509112Y19321388D01*
X14502254Y19321388D01*
X14481680Y19314530D01*
X14468218Y19300814D01*
X14461360Y19273636D01*
X14461360Y19239600D01*
X14468218Y19205310D01*
X14481680Y19184990D01*
X14502254Y19178132D01*
X14515970Y19178132D01*
X14536290Y19184990D01*
X14543148Y19198706D01*
D12*
X-35509Y19570661D02*
G01*
X5171465Y19570661D01*
X5171465Y18656261D02*
G01*
X-60909Y18656261D01*
X-60909Y19570661D01*
X5171465Y19570661D02*
G01*
X5171465Y18656261D01*
X5273065Y18656261D02*
G01*
X5273065Y19570661D01*
X5273065Y19570661D02*
G01*
X13807440Y19570661D01*
X13807440Y18656261D01*
X5273065Y18656261D01*
D13*
X14142735Y17870644D02*
G01*
X14142735Y17870644D01*
X14333235Y18061144D01*
X14333235Y18061144D01*
X14142735Y18251644D01*
X13253735Y18061144D02*
G01*
X14269735Y18061144D01*
M02*
