G04 Layer: TopSilkscreenLayer*
G04 EasyEDA v6.5.47, 2024-09-14 13:33:52*
G04 6b71bc96eda848908f56126c52e69eb3,6c79e25785f3422ea09e90fa1defc8f1,10*
G04 Gerber Generator version 0.2*
G04 Scale: 100 percent, Rotated: No, Reflected: No *
G04 Dimensions in millimeters *
G04 leading zeros omitted , absolute positions ,4 integer and 5 decimal *
%FSLAX45Y45*%
%MOMM*%

%ADD10C,0.2032*%
%ADD11C,0.5000*%
%ADD12C,0.8000*%

%LPD*%
G36*
X14669312Y20214844D02*
G01*
X14562480Y20214640D01*
X14552930Y20212253D01*
X14546072Y20207782D01*
X14540941Y20198638D01*
X14540941Y19429882D01*
X14546630Y19420281D01*
X14556841Y19414845D01*
X14673884Y19414794D01*
X14680895Y19420890D01*
X14683994Y19428053D01*
X14684095Y19456501D01*
X14678913Y19465798D01*
X14671548Y19469709D01*
X14603171Y19469709D01*
X14603171Y20157948D01*
X14671954Y20157998D01*
X14679320Y20162367D01*
X14684095Y20172172D01*
X14683994Y20200620D01*
X14680996Y20207478D01*
X14675713Y20212608D01*
G37*
G36*
X15318486Y20214742D02*
G01*
X15211856Y20214691D01*
X15206218Y20212354D01*
X15202357Y20210068D01*
X15197785Y20200721D01*
X15197785Y20171206D01*
X15203017Y20161859D01*
X15210383Y20157948D01*
X15278760Y20157948D01*
X15278760Y19469709D01*
X15210688Y19469709D01*
X15204338Y19466966D01*
X15201290Y19463359D01*
X15197836Y19456501D01*
X15197785Y19427901D01*
X15202103Y19419214D01*
X15208554Y19414794D01*
X15324480Y19414794D01*
X15329712Y19417182D01*
X15336316Y19421449D01*
X15340939Y19430847D01*
X15340939Y20197775D01*
X15336316Y20207224D01*
X15329458Y20211999D01*
G37*
G36*
X14738400Y20114818D02*
G01*
X14732558Y20111110D01*
X14728901Y20105522D01*
X14726716Y20097445D01*
X14726716Y20065288D01*
X14729053Y20057465D01*
X14733269Y20050302D01*
X14736521Y20048626D01*
X14904008Y20047661D01*
X14904923Y19510400D01*
X14907107Y19505320D01*
X14913254Y19499935D01*
X14918029Y19497954D01*
X14928342Y19495262D01*
X14954910Y19495211D01*
X14964816Y19497294D01*
X14970455Y19499427D01*
X14976500Y19504101D01*
X14978837Y19508470D01*
X14979802Y20047661D01*
X15145512Y20048626D01*
X15150338Y20051979D01*
X15154757Y20061377D01*
X15155367Y20096632D01*
X15153081Y20105522D01*
X15148560Y20111872D01*
X15143175Y20114818D01*
G37*
D10*
X14497494Y19311866D02*
G01*
X14497494Y19168610D01*
X14449742Y19311866D02*
G01*
X14545246Y19311866D01*
X14631098Y19311866D02*
G01*
X14617382Y19305008D01*
X14603920Y19291292D01*
X14597062Y19277830D01*
X14590204Y19257256D01*
X14590204Y19223220D01*
X14597062Y19202646D01*
X14603920Y19189184D01*
X14617382Y19175468D01*
X14631098Y19168610D01*
X14658276Y19168610D01*
X14671992Y19175468D01*
X14685708Y19189184D01*
X14692566Y19202646D01*
X14699170Y19223220D01*
X14699170Y19257256D01*
X14692566Y19277830D01*
X14685708Y19291292D01*
X14671992Y19305008D01*
X14658276Y19311866D01*
X14631098Y19311866D01*
X14744382Y19311866D02*
G01*
X14744382Y19168610D01*
X14744382Y19311866D02*
G01*
X14839632Y19168610D01*
X14839632Y19311866D02*
G01*
X14839632Y19168610D01*
X14884590Y19311866D02*
G01*
X14939200Y19243540D01*
X14939200Y19168610D01*
X14993810Y19311866D02*
G01*
X14939200Y19243540D01*
X15052484Y19311866D02*
G01*
X15127414Y19311866D01*
X15086520Y19257256D01*
X15107094Y19257256D01*
X15120556Y19250398D01*
X15127414Y19243540D01*
X15134272Y19223220D01*
X15134272Y19209504D01*
X15127414Y19189184D01*
X15113698Y19175468D01*
X15093378Y19168610D01*
X15072804Y19168610D01*
X15052484Y19175468D01*
X15045626Y19182326D01*
X15038768Y19195788D01*
X15261018Y19311866D02*
G01*
X15192946Y19311866D01*
X15186088Y19250398D01*
X15192946Y19257256D01*
X15213266Y19264114D01*
X15233840Y19264114D01*
X15254160Y19257256D01*
X15267876Y19243540D01*
X15274734Y19223220D01*
X15274734Y19209504D01*
X15267876Y19189184D01*
X15254160Y19175468D01*
X15233840Y19168610D01*
X15213266Y19168610D01*
X15192946Y19175468D01*
X15186088Y19182326D01*
X15179230Y19195788D01*
X15408338Y19264114D02*
G01*
X15401480Y19243540D01*
X15388018Y19230078D01*
X15367444Y19223220D01*
X15360586Y19223220D01*
X15340266Y19230078D01*
X15326550Y19243540D01*
X15319692Y19264114D01*
X15319692Y19270972D01*
X15326550Y19291292D01*
X15340266Y19305008D01*
X15360586Y19311866D01*
X15367444Y19311866D01*
X15388018Y19305008D01*
X15401480Y19291292D01*
X15408338Y19264114D01*
X15408338Y19230078D01*
X15401480Y19195788D01*
X15388018Y19175468D01*
X15367444Y19168610D01*
X15353728Y19168610D01*
X15333408Y19175468D01*
X15326550Y19189184D01*
X5032756Y20254468D02*
G01*
X5051297Y20263866D01*
X5078984Y20291552D01*
X5078984Y20097495D01*
X5250688Y20263866D02*
G01*
X5241543Y20282154D01*
X5213858Y20291552D01*
X5195315Y20291552D01*
X5167629Y20282154D01*
X5149088Y20254468D01*
X5139943Y20208239D01*
X5139943Y20162266D01*
X5149088Y20125181D01*
X5167629Y20106639D01*
X5195315Y20097495D01*
X5204459Y20097495D01*
X5232145Y20106639D01*
X5250688Y20125181D01*
X5259831Y20152868D01*
X5259831Y20162266D01*
X5250688Y20189952D01*
X5232145Y20208239D01*
X5204459Y20217637D01*
X5195315Y20217637D01*
X5167629Y20208239D01*
X5149088Y20189952D01*
X5139943Y20162266D01*
X5463031Y20291552D02*
G01*
X5463031Y20097495D01*
X5463031Y20199095D02*
G01*
X5481574Y20217637D01*
X5500115Y20226781D01*
X5527802Y20226781D01*
X5546343Y20217637D01*
X5564631Y20199095D01*
X5574029Y20171410D01*
X5574029Y20152868D01*
X5564631Y20125181D01*
X5546343Y20106639D01*
X5527802Y20097495D01*
X5500115Y20097495D01*
X5481574Y20106639D01*
X5463031Y20125181D01*
X5634990Y20291552D02*
G01*
X5644134Y20282154D01*
X5653531Y20291552D01*
X5644134Y20300695D01*
X5634990Y20291552D01*
X5644134Y20226781D02*
G01*
X5644134Y20097495D01*
X5742177Y20291552D02*
G01*
X5742177Y20134579D01*
X5751322Y20106639D01*
X5769863Y20097495D01*
X5788152Y20097495D01*
X5714491Y20226781D02*
G01*
X5779008Y20226781D01*
X5991352Y20291552D02*
G01*
X5991352Y20097495D01*
X6181852Y20263866D02*
G01*
X6163309Y20282154D01*
X6135624Y20291552D01*
X6098540Y20291552D01*
X6070854Y20282154D01*
X6052311Y20263866D01*
X6052311Y20245324D01*
X6061709Y20226781D01*
X6070854Y20217637D01*
X6089395Y20208239D01*
X6144768Y20189952D01*
X6163309Y20180554D01*
X6172454Y20171410D01*
X6181852Y20152868D01*
X6181852Y20125181D01*
X6163309Y20106639D01*
X6135624Y20097495D01*
X6098540Y20097495D01*
X6070854Y20106639D01*
X6052311Y20125181D01*
X6316472Y20291552D02*
G01*
X6242811Y20097495D01*
X6316472Y20291552D02*
G01*
X6390386Y20097495D01*
X6270497Y20162266D02*
G01*
X6362700Y20162266D01*
X6704584Y20226781D02*
G01*
X6704584Y20097495D01*
X6704584Y20199095D02*
G01*
X6686041Y20217637D01*
X6667500Y20226781D01*
X6639813Y20226781D01*
X6621272Y20217637D01*
X6602984Y20199095D01*
X6593586Y20171410D01*
X6593586Y20152868D01*
X6602984Y20125181D01*
X6621272Y20106639D01*
X6639813Y20097495D01*
X6667500Y20097495D01*
X6686041Y20106639D01*
X6704584Y20125181D01*
X6876288Y20291552D02*
G01*
X6876288Y20097495D01*
X6876288Y20199095D02*
G01*
X6857745Y20217637D01*
X6839458Y20226781D01*
X6811772Y20226781D01*
X6793229Y20217637D01*
X6774688Y20199095D01*
X6765543Y20171410D01*
X6765543Y20152868D01*
X6774688Y20125181D01*
X6793229Y20106639D01*
X6811772Y20097495D01*
X6839458Y20097495D01*
X6857745Y20106639D01*
X6876288Y20125181D01*
X7047991Y20226781D02*
G01*
X7047991Y20097495D01*
X7047991Y20199095D02*
G01*
X7029704Y20217637D01*
X7011161Y20226781D01*
X6983475Y20226781D01*
X6964934Y20217637D01*
X6946391Y20199095D01*
X6937247Y20171410D01*
X6937247Y20152868D01*
X6946391Y20125181D01*
X6964934Y20106639D01*
X6983475Y20097495D01*
X7011161Y20097495D01*
X7029704Y20106639D01*
X7047991Y20125181D01*
X7108952Y20226781D02*
G01*
X7108952Y20032979D01*
X7108952Y20199095D02*
G01*
X7127493Y20217637D01*
X7146036Y20226781D01*
X7173722Y20226781D01*
X7192263Y20217637D01*
X7210552Y20199095D01*
X7219950Y20171410D01*
X7219950Y20152868D01*
X7210552Y20125181D01*
X7192263Y20106639D01*
X7173722Y20097495D01*
X7146036Y20097495D01*
X7127493Y20106639D01*
X7108952Y20125181D01*
X7308595Y20291552D02*
G01*
X7308595Y20134579D01*
X7317740Y20106639D01*
X7336281Y20097495D01*
X7354824Y20097495D01*
X7280909Y20226781D02*
G01*
X7345425Y20226781D01*
X7462011Y20226781D02*
G01*
X7443470Y20217637D01*
X7424927Y20199095D01*
X7415784Y20171410D01*
X7415784Y20152868D01*
X7424927Y20125181D01*
X7443470Y20106639D01*
X7462011Y20097495D01*
X7489697Y20097495D01*
X7507986Y20106639D01*
X7526527Y20125181D01*
X7535672Y20152868D01*
X7535672Y20171410D01*
X7526527Y20199095D01*
X7507986Y20217637D01*
X7489697Y20226781D01*
X7462011Y20226781D01*
X7596631Y20226781D02*
G01*
X7596631Y20097495D01*
X7596631Y20171410D02*
G01*
X7606029Y20199095D01*
X7624572Y20217637D01*
X7642859Y20226781D01*
X7670545Y20226781D01*
X7873745Y20226781D02*
G01*
X7929372Y20097495D01*
X7984743Y20226781D02*
G01*
X7929372Y20097495D01*
X8054847Y20143724D02*
G01*
X8045704Y20134579D01*
X8054847Y20125181D01*
X8063991Y20134579D01*
X8054847Y20143724D01*
X8322818Y20291552D02*
G01*
X8295131Y20282154D01*
X8276590Y20254468D01*
X8267191Y20208239D01*
X8267191Y20180554D01*
X8276590Y20134579D01*
X8295131Y20106639D01*
X8322818Y20097495D01*
X8341106Y20097495D01*
X8368791Y20106639D01*
X8387334Y20134579D01*
X8396731Y20180554D01*
X8396731Y20208239D01*
X8387334Y20254468D01*
X8368791Y20282154D01*
X8341106Y20291552D01*
X8322818Y20291552D01*
X8466836Y20143724D02*
G01*
X8457691Y20134579D01*
X8466836Y20125181D01*
X8475979Y20134579D01*
X8466836Y20143724D01*
X8536940Y20254468D02*
G01*
X8555481Y20263866D01*
X8583168Y20291552D01*
X8583168Y20097495D01*
D11*
X14569737Y18203240D02*
G01*
X14569737Y17916728D01*
X14569737Y18203240D02*
G01*
X14692419Y18203240D01*
X14733313Y18189524D01*
X14747029Y18175808D01*
X14760745Y18148630D01*
X14760745Y18121452D01*
X14747029Y18094020D01*
X14733313Y18080558D01*
X14692419Y18066842D01*
X14569737Y18066842D02*
G01*
X14692419Y18066842D01*
X14733313Y18053126D01*
X14747029Y18039410D01*
X14760745Y18012232D01*
X14760745Y17971338D01*
X14747029Y17944160D01*
X14733313Y17930444D01*
X14692419Y17916728D01*
X14569737Y17916728D01*
X14959627Y18203240D02*
G01*
X14850661Y17916728D01*
X14959627Y18203240D02*
G01*
X15068847Y17916728D01*
X14891555Y18012232D02*
G01*
X15027953Y18012232D01*
X15363233Y18134914D02*
G01*
X15349771Y18162346D01*
X15322339Y18189524D01*
X15295161Y18203240D01*
X15240551Y18203240D01*
X15213373Y18189524D01*
X15186195Y18162346D01*
X15172479Y18134914D01*
X15158763Y18094020D01*
X15158763Y18025948D01*
X15172479Y17985054D01*
X15186195Y17957622D01*
X15213373Y17930444D01*
X15240551Y17916728D01*
X15295161Y17916728D01*
X15322339Y17930444D01*
X15349771Y17957622D01*
X15363233Y17985054D01*
X15453403Y18203240D02*
G01*
X15453403Y17916728D01*
X15644157Y18203240D02*
G01*
X15453403Y18012232D01*
X15521475Y18080558D02*
G01*
X15644157Y17916728D01*
D12*
X14142735Y18249282D02*
G01*
X14142735Y18249282D01*
X14333235Y18058782D01*
X14333235Y18058782D01*
X14142735Y17868282D01*
X13253735Y18058782D02*
G01*
X14269735Y18058782D01*
M02*
