G04 Layer: TopLayer*
G04 EasyEDA v6.5.47, 2024-09-14 13:33:52*
G04 6b71bc96eda848908f56126c52e69eb3,6c79e25785f3422ea09e90fa1defc8f1,10*
G04 Gerber Generator version 0.2*
G04 Scale: 100 percent, Rotated: No, Reflected: No *
G04 Dimensions in millimeters *
G04 leading zeros omitted , absolute positions ,4 integer and 5 decimal *
%FSLAX45Y45*%
%MOMM*%

%ADD10C,0.4000*%
%ADD11O,1.524X7.112*%
%ADD12C,1.5240*%

%LPD*%
D10*
X649986Y17219955D02*
G01*
X649986Y18549975D01*
X539998Y18659962D01*
X539998Y19257170D01*
X650278Y19367449D01*
X903986Y17219955D02*
G01*
X903986Y18535975D01*
X779998Y18659962D01*
X779998Y19243169D01*
X904278Y19367449D01*
X1157986Y17219955D02*
G01*
X1157986Y18551974D01*
X1049997Y18659962D01*
X1049997Y19259169D01*
X1158278Y19367449D01*
X1411986Y17219955D02*
G01*
X1411986Y18537974D01*
X1289997Y18659962D01*
X1289997Y19245168D01*
X1412278Y19367449D01*
X1665986Y17219955D02*
G01*
X1665986Y18523973D01*
X1529996Y18659962D01*
X1529996Y19231168D01*
X1666278Y19367449D01*
X1919986Y17219955D02*
G01*
X1919986Y18539973D01*
X1799996Y18659962D01*
X1799996Y19247167D01*
X1920278Y19367449D01*
X2173986Y17219955D02*
G01*
X2173986Y18540973D01*
X2054997Y18659962D01*
X2054997Y19248168D01*
X2174278Y19367449D01*
X2427986Y17219955D02*
G01*
X2427986Y18526973D01*
X2294996Y18659962D01*
X2294996Y19234167D01*
X2428278Y19367449D01*
X2681986Y17219955D02*
G01*
X2681986Y18527971D01*
X2564996Y18644961D01*
X2564996Y19250167D01*
X2682278Y19367449D01*
X2935986Y17219955D02*
G01*
X2935986Y18528972D01*
X2804995Y18659962D01*
X2804995Y19236166D01*
X2936278Y19367449D01*
X3189986Y17219955D02*
G01*
X3189986Y18529970D01*
X3059993Y18659962D01*
X3059993Y19237164D01*
X3190278Y19367449D01*
X3443986Y17219955D02*
G01*
X3443986Y18530971D01*
X3314994Y18659962D01*
X3314994Y19238165D01*
X3444278Y19367449D01*
X3697986Y17219955D02*
G01*
X3697986Y18531969D01*
X3569992Y18659962D01*
X3569992Y19239163D01*
X3698278Y19367449D01*
X3951986Y17219955D02*
G01*
X3951986Y18532970D01*
X3824993Y18659962D01*
X3824993Y19240164D01*
X3952278Y19367449D01*
X4205986Y17219955D02*
G01*
X4205986Y18533968D01*
X4079991Y18659962D01*
X4079991Y19241162D01*
X4206278Y19367449D01*
X4459986Y17219955D02*
G01*
X4459986Y18534969D01*
X4334992Y18659962D01*
X4334992Y19242163D01*
X4460278Y19367449D01*
X4713986Y17219955D02*
G01*
X4713986Y18535967D01*
X4589990Y18659962D01*
X4589990Y19243161D01*
X4714278Y19367449D01*
X5729975Y17218807D02*
G01*
X5729975Y18539975D01*
X5609988Y18659962D01*
X5609988Y19247159D01*
X5730278Y19367449D01*
X5983975Y17218807D02*
G01*
X5983975Y18540976D01*
X5864989Y18659962D01*
X5864989Y19248160D01*
X5984278Y19367449D01*
X6237975Y17218807D02*
G01*
X6237975Y18541974D01*
X6119987Y18659962D01*
X6119987Y19249158D01*
X6238278Y19367449D01*
X6491975Y17218807D02*
G01*
X6491975Y18542975D01*
X6374988Y18659962D01*
X6374988Y19250159D01*
X6492278Y19367449D01*
X6745975Y17218807D02*
G01*
X6745975Y18528972D01*
X6614985Y18659962D01*
X6614985Y19236156D01*
X6746278Y19367449D01*
X6999975Y17218807D02*
G01*
X6999975Y18529973D01*
X6869986Y18659962D01*
X6869986Y19237157D01*
X7000278Y19367449D01*
X7253975Y17218807D02*
G01*
X7253975Y18530971D01*
X7124984Y18659962D01*
X7124984Y19238155D01*
X7254278Y19367449D01*
X7507975Y17218807D02*
G01*
X7507975Y18531972D01*
X7379985Y18659962D01*
X7379985Y19239156D01*
X7508278Y19367449D01*
X7761975Y17218807D02*
G01*
X7761975Y18532970D01*
X7634983Y18659962D01*
X7634983Y19240154D01*
X7762278Y19367449D01*
X8015975Y17218807D02*
G01*
X8015975Y18533971D01*
X7889984Y18659962D01*
X7889984Y19241155D01*
X8016278Y19367449D01*
X8269975Y17218807D02*
G01*
X8269975Y18534969D01*
X8144982Y18659962D01*
X8144982Y19242153D01*
X8270278Y19367449D01*
X8523975Y17218807D02*
G01*
X8523975Y18535970D01*
X8399983Y18659962D01*
X8399983Y19243154D01*
X8524278Y19367449D01*
X8777975Y17218807D02*
G01*
X8777975Y18536970D01*
X8654983Y18659962D01*
X8654983Y19244155D01*
X8778278Y19367449D01*
X9031975Y17218807D02*
G01*
X9031975Y18537969D01*
X8909982Y18659962D01*
X8909982Y19245153D01*
X9032278Y19367449D01*
X9285975Y17218807D02*
G01*
X9285975Y18523968D01*
X9149981Y18659962D01*
X9149981Y19231152D01*
X9286278Y19367449D01*
X9539975Y17218807D02*
G01*
X9539975Y18539968D01*
X9419981Y18659962D01*
X9419981Y19247152D01*
X9540278Y19367449D01*
X9793975Y17218807D02*
G01*
X9793975Y18555967D01*
X9674981Y18674961D01*
X9674981Y19248153D01*
X9794278Y19367449D01*
X10047975Y17218807D02*
G01*
X10047975Y18541966D01*
X9929980Y18659962D01*
X9929980Y19249151D01*
X10048278Y19367449D01*
X10301975Y17218807D02*
G01*
X10301975Y18542967D01*
X10184980Y18659962D01*
X10184980Y19250152D01*
X10302278Y19367449D01*
X10555975Y17218807D02*
G01*
X10555975Y18528967D01*
X10424980Y18659962D01*
X10424980Y19236151D01*
X10556278Y19367449D01*
X10809975Y17218807D02*
G01*
X10809975Y18529965D01*
X10679978Y18659962D01*
X10679978Y19237149D01*
X10810278Y19367449D01*
X11063975Y17218807D02*
G01*
X11063975Y18530966D01*
X10934979Y18659962D01*
X10934979Y19238150D01*
X11064278Y19367449D01*
X11317975Y17218807D02*
G01*
X11317975Y18531964D01*
X11189977Y18659962D01*
X11189977Y19239148D01*
X11318278Y19367449D01*
X11571975Y17218807D02*
G01*
X11571975Y18532965D01*
X11444978Y18659962D01*
X11444978Y19240149D01*
X11572278Y19367449D01*
X11825975Y17218807D02*
G01*
X11825975Y18533963D01*
X11699976Y18659962D01*
X11699976Y19241147D01*
X11826278Y19367449D01*
X12079975Y17218807D02*
G01*
X12079975Y18534964D01*
X11954977Y18659962D01*
X11954977Y19242148D01*
X12080278Y19367449D01*
X12333975Y17218807D02*
G01*
X12333975Y18535962D01*
X12209975Y18659962D01*
X12209975Y19243146D01*
X12334278Y19367449D01*
X12587975Y17218807D02*
G01*
X12587975Y18521961D01*
X12449975Y18659962D01*
X12449975Y19229146D01*
X12588278Y19367449D01*
X12841975Y17218807D02*
G01*
X12841975Y18537961D01*
X12719974Y18659962D01*
X12719974Y19245145D01*
X12842278Y19367449D01*
X13095975Y17218807D02*
G01*
X13095975Y18523960D01*
X12959974Y18659962D01*
X12959974Y19231145D01*
X13096278Y19367449D01*
X13349975Y17218807D02*
G01*
X13349975Y18539960D01*
X13229973Y18659962D01*
X13229973Y19247170D01*
X13350252Y19367449D01*
X395986Y17219955D02*
G01*
X395986Y18533976D01*
X269999Y18659962D01*
X269999Y19241145D01*
X396303Y19367449D01*
D11*
G01*
X4713986Y17339335D03*
G01*
X4459986Y17339335D03*
G01*
X4205986Y17339335D03*
G01*
X3951986Y17339335D03*
G01*
X3697986Y17339335D03*
G01*
X3443986Y17339335D03*
G01*
X3189986Y17339335D03*
G01*
X2935986Y17339335D03*
G01*
X2681986Y17339335D03*
G01*
X2427986Y17339335D03*
G01*
X2173986Y17339335D03*
G01*
X1919986Y17339335D03*
G01*
X1665986Y17339335D03*
G01*
X1411986Y17339335D03*
G01*
X1157986Y17339335D03*
G01*
X903986Y17339335D03*
G01*
X649986Y17339335D03*
G01*
X395986Y17339335D03*
G01*
X5729986Y17338192D03*
G01*
X5983986Y17338192D03*
G01*
X6237986Y17338192D03*
G01*
X6491986Y17338192D03*
G01*
X6745986Y17338192D03*
G01*
X6999986Y17338192D03*
G01*
X7253986Y17338192D03*
G01*
X7507986Y17338192D03*
G01*
X7761986Y17338192D03*
G01*
X8015986Y17338192D03*
G01*
X8269986Y17338192D03*
G01*
X8523986Y17338192D03*
G01*
X8777986Y17338192D03*
G01*
X9031986Y17338192D03*
G01*
X9285986Y17338192D03*
G01*
X9539986Y17338192D03*
G01*
X9793986Y17338192D03*
G01*
X10047986Y17338192D03*
G01*
X10301986Y17338192D03*
G01*
X10555986Y17338192D03*
G01*
X10809986Y17338192D03*
G01*
X11063986Y17338192D03*
G01*
X11317986Y17338192D03*
G01*
X11571986Y17338192D03*
G01*
X11825986Y17338192D03*
G01*
X12079986Y17338192D03*
G01*
X12333986Y17338192D03*
G01*
X12587986Y17338192D03*
G01*
X12841986Y17338192D03*
G01*
X13095986Y17338192D03*
G01*
X13349986Y17338192D03*
D12*
G01*
X13350265Y19367449D03*
G01*
X13096290Y19367449D03*
G01*
X12842290Y19367449D03*
G01*
X12588290Y19367449D03*
G01*
X12334290Y19367449D03*
G01*
X12080290Y19367449D03*
G01*
X11826290Y19367449D03*
G01*
X11572290Y19367449D03*
G01*
X11318290Y19367449D03*
G01*
X11064290Y19367449D03*
G01*
X10810290Y19367449D03*
G01*
X10556290Y19367449D03*
G01*
X10302290Y19367449D03*
G01*
X10048290Y19367449D03*
G01*
X9794290Y19367449D03*
G01*
X9540290Y19367449D03*
G01*
X9286290Y19367449D03*
G01*
X9032290Y19367449D03*
G01*
X8778290Y19367449D03*
G01*
X8524290Y19367449D03*
G01*
X8270290Y19367449D03*
G01*
X8016290Y19367449D03*
G01*
X7762290Y19367449D03*
G01*
X7508290Y19367449D03*
G01*
X7254290Y19367449D03*
G01*
X7000290Y19367449D03*
G01*
X6746290Y19367449D03*
G01*
X6492290Y19367449D03*
G01*
X6238290Y19367449D03*
G01*
X5984290Y19367449D03*
G01*
X5730290Y19367449D03*
G01*
X13350265Y18859449D03*
G01*
X13096290Y18859449D03*
G01*
X12842290Y18859449D03*
G01*
X12588290Y18859449D03*
G01*
X12334290Y18859449D03*
G01*
X12080290Y18859449D03*
G01*
X11826290Y18859449D03*
G01*
X11572290Y18859449D03*
G01*
X11318290Y18859449D03*
G01*
X11064290Y18859449D03*
G01*
X10810290Y18859449D03*
G01*
X10556290Y18859449D03*
G01*
X10302290Y18859449D03*
G01*
X10048290Y18859449D03*
G01*
X9794290Y18859449D03*
G01*
X9540290Y18859449D03*
G01*
X9286290Y18859449D03*
G01*
X9032290Y18859449D03*
G01*
X8778290Y18859449D03*
G01*
X8524290Y18859449D03*
G01*
X8270290Y18859449D03*
G01*
X8016290Y18859449D03*
G01*
X7762290Y18859449D03*
G01*
X7508290Y18859449D03*
G01*
X7254290Y18859449D03*
G01*
X7000290Y18859449D03*
G01*
X6746290Y18859449D03*
G01*
X6492290Y18859449D03*
G01*
X6238290Y18859449D03*
G01*
X5984290Y18859449D03*
G01*
X5730290Y18859449D03*
G01*
X4714290Y19367449D03*
G01*
X4460290Y19367449D03*
G01*
X4206265Y19367449D03*
G01*
X3952265Y19367449D03*
G01*
X3698265Y19367449D03*
G01*
X3444265Y19367449D03*
G01*
X3190265Y19367449D03*
G01*
X2936265Y19367449D03*
G01*
X2682265Y19367449D03*
G01*
X2428265Y19367449D03*
G01*
X2174265Y19367449D03*
G01*
X1920290Y19367449D03*
G01*
X1666290Y19367449D03*
G01*
X1412290Y19367449D03*
G01*
X1158290Y19367449D03*
G01*
X904290Y19367449D03*
G01*
X650290Y19367449D03*
G01*
X396316Y19367449D03*
G01*
X4714290Y18859449D03*
G01*
X4460290Y18859449D03*
G01*
X4206265Y18859449D03*
G01*
X3952265Y18859449D03*
G01*
X3698265Y18859449D03*
G01*
X3444265Y18859449D03*
G01*
X3190265Y18859449D03*
G01*
X2936265Y18859449D03*
G01*
X2682265Y18859449D03*
G01*
X2428265Y18859449D03*
G01*
X2174265Y18859449D03*
G01*
X1920290Y18859449D03*
G01*
X1666290Y18859449D03*
G01*
X1412290Y18859449D03*
G01*
X1158290Y18859449D03*
G01*
X904290Y18859449D03*
G01*
X650290Y18859449D03*
G01*
X396316Y18859449D03*
M02*
