G04 Layer: BottomPasteMaskLayer*
G04 EasyEDA v6.5.47, 2024-09-14 13:33:52*
G04 6b71bc96eda848908f56126c52e69eb3,6c79e25785f3422ea09e90fa1defc8f1,10*
G04 Gerber Generator version 0.2*
G04 Scale: 100 percent, Rotated: No, Reflected: No *
G04 Dimensions in millimeters *
G04 leading zeros omitted , absolute positions ,4 integer and 5 decimal *
%FSLAX45Y45*%
%MOMM*%

%ADD10O,1.524X7.112*%

%LPD*%
D10*
G01*
X4713986Y17339335D03*
G01*
X4459986Y17339335D03*
G01*
X4205986Y17339335D03*
G01*
X3951986Y17339335D03*
G01*
X3697986Y17339335D03*
G01*
X3443986Y17339335D03*
G01*
X3189986Y17339335D03*
G01*
X2935986Y17339335D03*
G01*
X2681986Y17339335D03*
G01*
X2427986Y17339335D03*
G01*
X2173986Y17339335D03*
G01*
X1919986Y17339335D03*
G01*
X1665986Y17339335D03*
G01*
X1411986Y17339335D03*
G01*
X1157986Y17339335D03*
G01*
X903986Y17339335D03*
G01*
X649986Y17339335D03*
G01*
X395986Y17339335D03*
G01*
X5729986Y17338192D03*
G01*
X5983986Y17338192D03*
G01*
X6237986Y17338192D03*
G01*
X6491986Y17338192D03*
G01*
X6745986Y17338192D03*
G01*
X6999986Y17338192D03*
G01*
X7253986Y17338192D03*
G01*
X7507986Y17338192D03*
G01*
X7761986Y17338192D03*
G01*
X8015986Y17338192D03*
G01*
X8269986Y17338192D03*
G01*
X8523986Y17338192D03*
G01*
X8777986Y17338192D03*
G01*
X9031986Y17338192D03*
G01*
X9285986Y17338192D03*
G01*
X9539986Y17338192D03*
G01*
X9793986Y17338192D03*
G01*
X10047986Y17338192D03*
G01*
X10301986Y17338192D03*
G01*
X10555986Y17338192D03*
G01*
X10809986Y17338192D03*
G01*
X11063986Y17338192D03*
G01*
X11317986Y17338192D03*
G01*
X11571986Y17338192D03*
G01*
X11825986Y17338192D03*
G01*
X12079986Y17338192D03*
G01*
X12333986Y17338192D03*
G01*
X12587986Y17338192D03*
G01*
X12841986Y17338192D03*
G01*
X13095986Y17338192D03*
G01*
X13349986Y17338192D03*
M02*
